<svg xmlns="http://www.w3.org/2000/svg" viewBox="0 0 27.02 33.89"><defs><style>.cls-1{fill:#9b9b9b;}</style></defs><g id="Layer_2" data-name="Layer 2"><g id="Layer_1-2" data-name="Layer 1"><path class="cls-1" d="M27,29.68,22,18.93a1.49,1.49,0,0,0,.79-1.29l0-1.47a.65.65,0,0,1,.22-.46l1.14-.93a1.48,1.48,0,0,0,.4-1.77l-.62-1.34a.62.62,0,0,1,0-.5l.62-1.34a1.48,1.48,0,0,0-.4-1.77L23,7.13a.65.65,0,0,1-.22-.46l0-1.47a1.48,1.48,0,0,0-1.13-1.42L20.2,3.44a.61.61,0,0,1-.4-.32L19.15,1.8A1.49,1.49,0,0,0,17.51,1l-1.44.3a.58.58,0,0,1-.49-.11L14.42.31a1.5,1.5,0,0,0-1.82,0l-1.16.9a.58.58,0,0,1-.49.11L9.51,1a1.49,1.49,0,0,0-1.64.78L7.22,3.12a.61.61,0,0,1-.4.32l-1.43.34A1.48,1.48,0,0,0,4.26,5.2l0,1.47A.58.58,0,0,1,4,7.13l-1.14.93a1.48,1.48,0,0,0-.4,1.77l.62,1.34a.62.62,0,0,1,0,.5L2.48,13a1.48,1.48,0,0,0,.4,1.77L4,15.71a.58.58,0,0,1,.22.46l0,1.47a1.49,1.49,0,0,0,.79,1.29L0,29.68a.45.45,0,0,0,.07.48.44.44,0,0,0,.46.13l5.08-1.55,2.07,4.88a.45.45,0,0,0,.4.27h0a.46.46,0,0,0,.4-.25l5-10.69,5,10.69a.46.46,0,0,0,.4.25h0a.44.44,0,0,0,.4-.27l2.07-4.88,5.08,1.55a.44.44,0,0,0,.46-.13A.45.45,0,0,0,27,29.68ZM4.58,15,3.44,14.1a.6.6,0,0,1-.16-.72l.61-1.33a1.44,1.44,0,0,0,0-1.25L3.28,9.46a.6.6,0,0,1,.16-.72l1.14-.93a1.52,1.52,0,0,0,.54-1.12l0-1.47a.59.59,0,0,1,.46-.58L7,4.29a1.44,1.44,0,0,0,1-.78L8.66,2.2a.59.59,0,0,1,.66-.32l1.44.31A1.49,1.49,0,0,0,12,1.91L13.14,1a.6.6,0,0,1,.74,0h0l1.16.9a1.49,1.49,0,0,0,1.22.28l1.44-.31a.59.59,0,0,1,.66.32L19,3.51a1.44,1.44,0,0,0,1,.78l1.43.35a.59.59,0,0,1,.46.58l0,1.47a1.52,1.52,0,0,0,.54,1.12l1.14.93a.62.62,0,0,1,.17.72l-.62,1.34a1.44,1.44,0,0,0,0,1.25l.62,1.33a.62.62,0,0,1-.17.72L22.44,15a1.53,1.53,0,0,0-.54,1.13l0,1.47a.59.59,0,0,1-.46.57L20,18.55a1.46,1.46,0,0,0-1,.78l-.66,1.31a.59.59,0,0,1-.66.32l-1.44-.3a1.48,1.48,0,0,0-1.22.27l-1.16.91a.63.63,0,0,1-.74,0L12,20.93a1.49,1.49,0,0,0-.91-.31,1.15,1.15,0,0,0-.31,0L9.32,21a.59.59,0,0,1-.66-.32L8,19.33a1.46,1.46,0,0,0-1-.78L5.6,18.2a.59.59,0,0,1-.46-.57l0-1.47A1.53,1.53,0,0,0,4.58,15ZM8.15,32.37,6.3,28a.43.43,0,0,0-.53-.25L1.26,29.16l4.65-10,.91.22a.64.64,0,0,1,.4.32L7.87,21a1.48,1.48,0,0,0,1.64.78l1.44-.3a.58.58,0,0,1,.49.11l1.16.9.1.07Zm13.1-4.59a.43.43,0,0,0-.53.25l-1.85,4.34L14.32,22.6l.1-.07,1.16-.9a.58.58,0,0,1,.49-.11l1.44.3A1.48,1.48,0,0,0,19.15,21l.65-1.32a.64.64,0,0,1,.4-.32l.91-.22,4.65,10Z"/><path class="cls-1" d="M13.51,19.32A7.89,7.89,0,1,0,7.92,17,7.86,7.86,0,0,0,13.51,19.32Zm0-14.92a7,7,0,1,1-7,7A7,7,0,0,1,13.51,4.4Z"/></g></g></svg>