<svg xmlns="http://www.w3.org/2000/svg" viewBox="0 0 24.48 32.64"><defs><style>.cls-1{fill:#2d6e6d;}</style></defs><g id="Layer_2" data-name="Layer 2"><g id="Layer_1-2" data-name="Layer 1"><g id="energy_saving-eco_light_bulb-lamp" data-name="energy saving-eco light bulb-lamp"><path class="cls-1" d="M13.34,18.36h-.09a.5.5,0,0,1-.5-.51.51.51,0,0,1,.51-.51h.08A4.57,4.57,0,0,0,16.88,16c1.43-1.58,1.54-4.09,1.51-5.17a8.08,8.08,0,0,0-3.3,1.36.51.51,0,1,1-.6-.82,9.15,9.15,0,0,1,4.35-1.63.52.52,0,0,1,.54.46c0,.16.42,4.1-1.74,6.48A5.53,5.53,0,0,1,13.34,18.36Z"/><path class="cls-1" d="M10.2,18.36h0a5.89,5.89,0,0,1-4.82-2.22C4.05,14.31,4,11.5,5,7.79a2.19,2.19,0,0,0,.07-.23.5.5,0,0,1,.42-.4.51.51,0,0,1,.52.24C6.47,8.15,7.57,8.55,8.73,9c2.48.9,5.89,2.14,4.52,8a.52.52,0,0,1-.62.38.52.52,0,0,1-.38-.61c1.17-5-1.28-5.85-3.87-6.79A8.64,8.64,0,0,1,5.85,8.7c-.82,3.08-.71,5.38.34,6.85a4.92,4.92,0,0,0,4,1.79.52.52,0,0,1,.49.53A.51.51,0,0,1,10.2,18.36Z"/><path class="cls-1" d="M13.26,21.93h-.1a.5.5,0,0,1-.4-.6C13.7,16.63,9,13.73,8.92,13.7a.51.51,0,0,1,.52-.88c.06,0,5.4,3.31,4.32,8.7A.51.51,0,0,1,13.26,21.93Z"/><path class="cls-1" d="M16.83,27.54H7.65A.51.51,0,0,1,7.14,27a6.59,6.59,0,0,0-2.46-5.16A12.24,12.24,0,0,1,10.85.08h0a12.14,12.14,0,0,1,9.55,3,12.24,12.24,0,0,1-.53,18.69A6.64,6.64,0,0,0,17.34,27,.52.52,0,0,1,16.83,27.54Zm-8.69-1h8.2A7.67,7.67,0,0,1,19.23,21a11.22,11.22,0,0,0,.49-17.14A11.11,11.11,0,0,0,11,1.09a11.23,11.23,0,0,0-5.65,20A7.57,7.57,0,0,1,8.14,26.52Z"/><path class="cls-1" d="M16.32,30.09H8.16a.51.51,0,1,1,0-1h8.16a.51.51,0,0,1,0,1Z"/><path class="cls-1" d="M14.28,32.64H10.2a.48.48,0,0,1-.36-.15L9.33,32a.51.51,0,0,1,.72-.72l.36.36h3.66l.36-.36a.51.51,0,0,1,.72.72l-.51.51A.49.49,0,0,1,14.28,32.64Z"/></g></g></g></svg>