<svg width="131" height="57" viewBox="0 0 131 57" fill="none" xmlns="http://www.w3.org/2000/svg">

<path fill-rule="evenodd" clip-rule="evenodd" d="M84.8906 43.8802H96.5006C89.7906 38.7502 87.8706 27.2502 88.2406 20.6702H104.441C105.131 15.2002 96.6306 13.2802 97.1906 7.24023H98.9106C98.8106 12.8602 107.281 14.8202 106.211 20.6402H109.081C110.271 14.1502 102.441 12.6402 101.921 7.25023H103.641C104.901 12.1102 112.071 13.9402 110.831 20.6902H125.511C125.511 21.9502 125.511 22.9202 125.461 24.4702C135.991 25.7902 129.901 41.4702 120.461 40.4702C119.544 41.7418 118.468 42.891 117.261 43.8902H128.871V45.6202H123.001C122.151 48.3402 119.781 49.6202 117.001 49.6202C112.351 48.6202 91.8506 52.6202 90.7406 45.6202H84.8906V43.8802ZM121.151 45.6102H92.6006C92.9888 46.3508 93.5893 46.9587 94.3251 47.356C95.0608 47.7533 95.8984 47.9219 96.7306 47.8402C99.9906 47.0302 119.731 49.9602 121.151 45.6102V45.6102ZM125.331 26.1802C124.984 30.5622 123.716 34.8216 121.611 38.6802C128.111 38.7402 133.121 27.1302 125.331 26.1802ZM99.5006 43.8802H114.261C121.611 39.7202 123.851 29.1902 123.801 22.4002H90.0006C89.9006 29.1902 92.1306 39.7102 99.5006 43.8802Z" fill="white"/>
<path fill-rule="evenodd" clip-rule="evenodd" d="M10.0003 1.35005V12.7701H8.27034V1.35005H10.0003ZM5.63033 20.42L4.42033 51.94C4.42033 53.94 5.48033 55.0001 7.10033 55.0401C8.72033 55.0801 9.81033 53.93 9.79033 51.94L8.58033 20.42C7.60716 20.62 6.60351 20.62 5.63033 20.42V20.42ZM10.2803 19.82C16.2803 17.35 13.4603 6.18005 14.0603 1.35005H12.3403C11.6203 6.00005 15.0903 19 7.10033 18.84C-0.869665 19 2.57033 6.00005 1.87033 1.35005H0.140335C0.740335 6.21005 -2.04966 17.35 3.92034 19.82L2.69034 51.8801C2.63214 52.4964 2.7026 53.118 2.89724 53.7057C3.09189 54.2933 3.40647 54.8342 3.82106 55.2939C4.23565 55.7536 4.7412 56.1222 5.3057 56.3763C5.87019 56.6304 6.48131 56.7645 7.10033 56.7701C7.71936 56.7645 8.33048 56.6304 8.89497 56.3763C9.45946 56.1222 9.96502 55.7536 10.3796 55.2939C10.7942 54.8342 11.1088 54.2933 11.3034 53.7057C11.4981 53.118 11.5685 52.4964 11.5103 51.8801L10.2803 19.82V19.82ZM21.7103 52.34C21.3803 55.92 27.0803 55.83 26.7103 52.2701V1.79005C18.3503 2.94005 22.4303 18.19 21.5003 23.73H24.2003L21.7103 52.34ZM20.0003 52.19L22.3403 25.46H19.7903C20.7303 18.13 15.8403 -0.94995 28.4603 4.96358e-05V52.2701C28.8803 58.18 19.3903 58.09 19.9803 52.19H20.0003ZM5.93033 1.35005V12.7701H4.20033V1.35005H5.93033Z" fill="white"/>
<path d="M58.928 38.4777H61.3715V27.9706H71.9762V25.6249H61.3715V15.1178H58.928V25.6249H48.3232V27.9706H58.928V38.4777Z" fill="white"/>

</svg>
