<svg xmlns="http://www.w3.org/2000/svg" viewBox="0 0 44.38 38.89"><defs><style>.cls-1{fill:#2d6e6d;}</style></defs><g id="Layer_2" data-name="Layer 2"><g id="Layer_1-2" data-name="Layer 1"><path class="cls-1" d="M6.86,37.9c-1.54,0-3.54-1.32-5.08-3.51-2-2.84-2.37-5.92-.83-7,.83-.58,2.06-.47,3.38.31l-.56.92c-.91-.54-1.74-.67-2.2-.35-.88.62-.65,3,1.09,5.5s3.93,3.5,4.81,2.88c.48-.34.63-1.2.39-2.3l1-.23c.34,1.56,0,2.81-.82,3.41A2.08,2.08,0,0,1,6.86,37.9Z"/><path class="cls-1" d="M22.86,28.16a8.25,8.25,0,0,1-1.22-.09,4.48,4.48,0,0,1-2.38-.92,1.14,1.14,0,0,1-.42-.62,1,1,0,0,1,.09-.66,7.78,7.78,0,0,0-1-.82c-.55-.4-.88-.65-.68-1.08l.17-.4,1.08.2c2,.42,4.1.86,6.08.32A22,22,0,0,0,28,22.73l.55-.25c2.05-.93,4.26-1.73,5.38-.65.19.19.57.71-.15,1.55h0c-1.11,1.3-4.62,3.11-5.08,3.32A14,14,0,0,1,22.86,28.16Zm-3.17-3.05c.36.38.52.77.25,1.16a3.25,3.25,0,0,0,1.85.74,11.8,11.8,0,0,0,6.43-1.29c.61-.28,3.8-2,4.71-3h0a1.11,1.11,0,0,0,.12-.15c-.56-.36-1.93-.05-4,.92l-.58.26a22.06,22.06,0,0,1-3.55,1.41A11.33,11.33,0,0,1,19.69,25.11Z"/><path class="cls-1" d="M33.76,31.2c-.49,0-1,0-1.47,0l-.7,0a66.12,66.12,0,0,1-6.7-.45A8.17,8.17,0,0,1,21,29.39a2.78,2.78,0,0,1-1.14-1.57l-.14-.58c-.31-1.27-.5-2,0-2.46a1,1,0,0,1,1-.08,32.76,32.76,0,0,0,10.74,2.13c.9,0,1.8,0,2.7-.06l2.44-.06c2.24,0,3.69.3,4.33,1a1.21,1.21,0,0,1-.34,2.07l-.37.14h0a9,9,0,0,1-1.84.34,8.35,8.35,0,0,0-1.31.21,8.63,8.63,0,0,0-.86.28,6,6,0,0,1-1.74.44C34.28,31.2,34,31.2,33.76,31.2ZM20.54,25.77c.05.32.17.82.27,1.22l.14.59a1.74,1.74,0,0,0,.73.94A7.31,7.31,0,0,0,25,29.62c2.18.29,4.43.36,6.59.44l.72,0a19,19,0,0,0,2.13,0,5.12,5.12,0,0,0,1.44-.38c.32-.12.63-.23,1-.32a10.18,10.18,0,0,1,1.45-.23,7.78,7.78,0,0,0,1.62-.3l.27-.1c.1-.05.15-.11.15-.13h0s0-.08-.15-.22-.85-.67-3.52-.64c-.81,0-1.62,0-2.42.06s-1.82.06-2.73.06h-.09A35.78,35.78,0,0,1,20.54,25.77Z"/><path class="cls-1" d="M31.68,34.07a16.49,16.49,0,0,1-5.09-.69,9.45,9.45,0,0,1-5.1-3.67,1.54,1.54,0,0,1-.3-.87,7.54,7.54,0,0,0-.71-.49c-.2-.13-.37-.24-.44-.3l-2-1.8,2.56.88A36.9,36.9,0,0,0,30,29c1.4.11,2.82.12,4.19.14l2.26,0,1.53,0c.66,0,1.22,0,2.28.07s4,.31,4.08,2.05c0,1-.87,1.62-2.71,1.95a21.3,21.3,0,0,1-5,.25,3.74,3.74,0,0,0-1.95.16,6.54,6.54,0,0,1-1.94.35C32.39,34.07,32,34.07,31.68,34.07Zm-9.4-5.28s0,.06,0,.08a.71.71,0,0,0,.12.25,8.41,8.41,0,0,0,4.53,3.23,17,17,0,0,0,5.8.63,5.56,5.56,0,0,0,1.66-.31,4.86,4.86,0,0,1,2.43-.2,20.43,20.43,0,0,0,4.67-.24c1.46-.26,1.83-.66,1.82-.84,0-.49-1.39-.95-3-1-1-.05-1.6-.06-2.24-.07l-1.55,0c-.75,0-1.5,0-2.24,0-1.39,0-2.83,0-4.26-.15A40.09,40.09,0,0,1,22.28,28.79Zm-1.06-.19h0Z"/><path class="cls-1" d="M34.58,36h-.65a49.48,49.48,0,0,1-7.82-.61,17.39,17.39,0,0,1-5.52-1.78,20.87,20.87,0,0,1-4.1-3.13l-.4-.36a11.27,11.27,0,0,0-3.62-2.34,4.71,4.71,0,0,0-4.14.27l-.66-.85c1.49-1.14,3.7-.95,5.15-.44a12.21,12.21,0,0,1,4,2.56l.4.36a19.92,19.92,0,0,0,3.89,3,16.69,16.69,0,0,0,5.18,1.67,49.93,49.93,0,0,0,7.66.59c1.22,0,2.5,0,3.92-.06,1,0,1.87-.14,1.86-.65q0-.51-.78-.72a18.46,18.46,0,0,0-3.78-.43c-.51,0-1,0-1.51-.08-1.86-.14-3.84-.31-5.8-.63a7.35,7.35,0,0,1-3.73-1.61,6.41,6.41,0,0,1-1-1.05c-.36-.5-.67-1-1-1.52a9.81,9.81,0,0,0-2.36-2.91,8.19,8.19,0,0,0-4.7-1.49c-3.57-.09-8.28,1.1-10.79,3.93L3.53,27c2.74-3.08,7.8-4.36,11.61-4.29a9.29,9.29,0,0,1,5.32,1.7,10.79,10.79,0,0,1,2.64,3.22c.29.48.59,1,.94,1.44a5.12,5.12,0,0,0,.79.88A6.4,6.4,0,0,0,28,31.29c1.92.32,3.88.49,5.72.63l1.47.08a19.28,19.28,0,0,1,4,.46,1.86,1.86,0,0,1,1.57,1.75c0,1.63-2,1.7-2.84,1.74C36.72,36,35.62,36,34.58,36Z"/><path class="cls-1" d="M27.3,38.89a1.44,1.44,0,0,1-.75-.26,11.23,11.23,0,0,0-3.87-1.12A20.56,20.56,0,0,1,20.14,37a21.12,21.12,0,0,1-2.51-1,13.38,13.38,0,0,0-3.39-1.17,14.4,14.4,0,0,0-3.71-.23,10.22,10.22,0,0,0-2.48.61l-.34-1a12,12,0,0,1,2.74-.66,15.84,15.84,0,0,1,4,.24A14.74,14.74,0,0,1,18.08,35a18.54,18.54,0,0,0,2.37.94,17.47,17.47,0,0,0,2.41.51,12.45,12.45,0,0,1,4.23,1.26l.05,0a3.26,3.26,0,0,0-1.85-2.1,14.44,14.44,0,0,0-1.6-.65,16.41,16.41,0,0,1-1.59-.63l.47-1c.47.22,1,.4,1.48.59a13.93,13.93,0,0,1,1.73.7,4.16,4.16,0,0,1,2.43,2.92,1.09,1.09,0,0,1-.51,1.21A1,1,0,0,1,27.3,38.89Z"/><path class="cls-1" d="M8.26,28.08a4.75,4.75,0,0,1,4.25-.31c.63.21.89-.78.27-1a5.73,5.73,0,0,0-5,.42c-.53.37,0,1.26.52.88Z"/><path class="cls-1" d="M8.63,33.92C6.51,35.09,2.54,29.28,4.3,27.7c.49-.44-.23-1.16-.72-.72C.89,29.39,6,36.57,9.14,34.8c.58-.32.06-1.2-.51-.88Z"/><path class="cls-1" d="M20,17.36l-.45-.68C19.2,16.12,15.86,11,15.84,6V5.84A6.81,6.81,0,0,1,17,1.47,3.79,3.79,0,0,1,20.5,0,4.15,4.15,0,0,1,23.3,2a7.58,7.58,0,0,1,.84,4c0,5.13-3.51,10.54-3.66,10.76ZM20,1.08a2.82,2.82,0,0,0-2.15,1.07,5.85,5.85,0,0,0-.92,3.7c0,3.87,2.15,7.9,3.11,9.51.94-1.61,3-5.63,3-9.44a6.52,6.52,0,0,0-.67-3.36A3.08,3.08,0,0,0,20.34,1.1Z"/><path class="cls-1" d="M20.73,17.77h-.81A13.21,13.21,0,0,1,13.45,16a4.22,4.22,0,0,1-1.86-2.13,2.46,2.46,0,0,1,.5-2.36,2.78,2.78,0,0,1,2-.78,4.58,4.58,0,0,1,2.28.92,13.14,13.14,0,0,1,4,5.34ZM14,11.84a1.53,1.53,0,0,0-1.13.44,1.32,1.32,0,0,0-.26,1.31A3.15,3.15,0,0,0,14,15.11a11.48,11.48,0,0,0,5.05,1.53,11.18,11.18,0,0,0-3.27-4.07,3.83,3.83,0,0,0-1.71-.73Z"/><path class="cls-1" d="M19.26,17.77l.31-.75a13.09,13.09,0,0,1,4-5.34,4.58,4.58,0,0,1,2.28-.92,2.65,2.65,0,0,1,2,.78,2.46,2.46,0,0,1,.5,2.36,4.19,4.19,0,0,1-1.8,2.1,13.32,13.32,0,0,1-6.52,1.76ZM26,11.84h-.05a3.74,3.74,0,0,0-1.7.73,11.22,11.22,0,0,0-3.28,4.07,11.36,11.36,0,0,0,5-1.5,3.32,3.32,0,0,0,1.42-1.55,1.37,1.37,0,0,0-.26-1.31A1.55,1.55,0,0,0,26,11.84Z"/><path class="cls-1" d="M19.48,8.12V19.36a.51.51,0,0,0,1,0V8.12a.51.51,0,0,0-1,0Z"/></g></g></svg>