<svg xmlns="http://www.w3.org/2000/svg" viewBox="0 0 28.2 28.2"><defs><style>.cls-1{fill:#2d6e6d;}</style></defs><g id="Layer_2" data-name="Layer 2"><g id="Layer_1-2" data-name="Layer 1"><g id="green_energy" data-name="green energy"><path class="cls-1" d="M14.1,26.44a.44.44,0,0,1-.44-.44c0-1.72-.34-2.93-.95-3.41a1.42,1.42,0,0,0-1.27-.17c-1.3.34-5.23,1.36-8.24-1.85S0,10.85,0,10.58a.44.44,0,0,1,.38-.44,12.62,12.62,0,0,1,5.51.47.44.44,0,0,1,.25.57.45.45,0,0,1-.58.25A11.11,11.11,0,0,0,.9,11c.07,1.43.5,6.38,3,9s5.34,2.13,7.37,1.6a2.25,2.25,0,0,1,2,.32c1.07.83,1.29,2.69,1.29,4.11a.44.44,0,0,1-.44.44Z"/><path class="cls-1" d="M20.24,25.7a9.57,9.57,0,0,1-4.13-1.07.44.44,0,0,1,.39-.79c2.35,1.14,4.42,1.28,6.16.42,3-1.47,4.22-5.43,4.57-6.74a16.59,16.59,0,0,0-6.33,0c-4.07.9-4.15,3.54-4.16,3.65a.44.44,0,0,1-.44.44h0a.44.44,0,0,1-.44-.44c0-.14.06-3.45,4.85-4.51a17.36,17.36,0,0,1,7.16.12.43.43,0,0,1,.32.51c0,.24-1.2,5.83-5.13,7.78A6.34,6.34,0,0,1,20.24,25.7Z"/><path class="cls-1" d="M14.16,26.89a.39.39,0,0,1-.23-.07.44.44,0,0,1-.15-.6,16.85,16.85,0,0,1,8.55-6.37.44.44,0,0,1,.56.27.45.45,0,0,1-.27.57,16.14,16.14,0,0,0-8.08,6A.47.47,0,0,1,14.16,26.89Z"/><path class="cls-1" d="M14.1,17.19A6.18,6.18,0,0,1,7.93,11V8.81a.44.44,0,0,1,.44-.44.44.44,0,0,1,.44.44V11a5.29,5.29,0,0,0,10.58,0V8.81a.44.44,0,1,1,.88,0V11A6.18,6.18,0,0,1,14.1,17.19Z"/><rect class="cls-1" x="13.66" y="18.51" width="0.88" height="9.69"/><path class="cls-1" d="M19.83,9.25H13.22V8.37h6.61a.44.44,0,0,0,.44-.44V6.61a.44.44,0,0,0-.44-.44H8.37a.44.44,0,0,0-.44.44V7.93a.44.44,0,0,0,.44.44H9.69v.88H8.37A1.32,1.32,0,0,1,7.05,7.93V6.61A1.32,1.32,0,0,1,8.37,5.29H19.83a1.32,1.32,0,0,1,1.32,1.32V7.93A1.32,1.32,0,0,1,19.83,9.25Z"/><path class="cls-1" d="M12.78,6.17H11.9V1.76a.88.88,0,0,0-1.76,0V6.17H9.25V1.76a1.77,1.77,0,0,1,3.53,0Z"/><path class="cls-1" d="M19,6.17h-.88V1.76a.89.89,0,0,0-1.77,0V6.17h-.88V1.76a1.77,1.77,0,0,1,3.53,0Z"/></g></g></g></svg>