<svg xmlns="http://www.w3.org/2000/svg" viewBox="0 0 236.54 52">
    <path fill="#306d6d" d="M50.2,18.49V30.63H41.53v-3C40.46,29.93,38.31,31,35.13,31c-5.53,0-8.38-3.13-8.38-7,0-4.38,3.3-6.82,10.32-6.82h3.76c-.29-1.73-1.61-2.64-4.26-2.64a10.11,10.11,0,0,0-5.77,1.78l-3-6.15A20.54,20.54,0,0,1,38,7.64C45.74,7.64,50.2,11,50.2,18.49Zm-9.33,4.79V21.71H38.56c-2,0-2.85.66-2.85,1.9,0,1,.82,1.82,2.23,1.82A3,3,0,0,0,40.87,23.28Z"/>
    <path fill="#306d6d" d="M51.77,0H61.1V30.63H51.77Z"/>
    <path fill="#306d6d" d="M73.56,23.7l-1.48,1.61v5.32H62.75V0h9.33V14.61l6.48-6.56h11l-9.33,9.78,10.07,12.8H79.05Z"/>
    <path fill="#306d6d" d="M109.1,15.4h8.47V27.62A23.38,23.38,0,0,1,105,31.29c-9.33,0-16.14-6.23-16.14-15.11S95.65,1.07,105.18,1.07c5.7,0,10.28,2,13.21,5.58l-6.23,5.49A8.23,8.23,0,0,0,105.68,9c-4.29,0-7,2.76-7,7.22s2.73,7.23,6.89,7.23a9,9,0,0,0,3.55-.71Z"/>
    <path fill="#306d6d" d="M134.12,23.37h-2.64v7.26h-9.74V1.73h13.91c8,0,13.17,4.21,13.17,10.9a9.67,9.67,0,0,1-5.45,9.08l6.07,8.92H139ZM135,9.25h-3.55V16H135c2.68,0,4-1.28,4-3.39S137.71,9.25,135,9.25Z"/>
    <path fill="#306d6d" d="M176.52,23.28v7.35h-24V1.73H176V9.08H162.07v3.39h12.22v7H162.07v3.8Z"/>
    <path fill="#306d6d" d="M204.3,23.28v7.35h-24V1.73h23.49V9.08H189.85v3.39h12.22v7H189.85v3.8Z"/>
    <path fill="#306d6d" d="M236.54,1.73v28.9h-8l-11-13.13V30.63h-9.5V1.73h8l11,13.13V1.73Z"/>
    <path fill="#306d6d" d="M0,1.73V9.29H8.46V30.63h9.75V9.29h8.46V1.73ZM25.54,8.22H17.08L9.59,14.15V8.22H1.13V2.93H25.54Z"/>
    <path fill="#cfd852" d="M84.91,36.63h0l0,0a19.05,19.05,0,0,0-4.93,2.8c0-.18,0-.34,0-.48,0-.44.08-.75.08-1.13,0-1.3-.35-2.81-1.34-2.81-.76,0-1.78,1.12-2.86,2.31-.71.78-1.59,1.75-1.94,1.75-.07,0-.13,0-.13-.39A7.24,7.24,0,0,1,75,35.23a5.4,5.4,0,0,0,.39-.72l0,0v0a.38.38,0,0,0-.19-.32.48.48,0,0,0-.28-.06c-.48,0-1.17,1.48-1.59,2.81-.68.24-1.23.48-1.75.72s-.93.41-1.43.59c-.06-.84-.32-2.65-2.23-2.65a5.36,5.36,0,0,0-3.1,1.43v0c.48-1.36.48-1.36.68-1.56a4.79,4.79,0,0,0,.37-.41,18.63,18.63,0,0,0,3.81-8.22v0s0-.09,0-.14c0-.21-.06-.64-.54-.64-.74,0-2,2.11-3.69,6.29C64.28,35.08,63,38.74,63,39.65c0,.62.21,1,.56,1s.34-.21.41-.33c1.07-2.19,3-3.82,4-3.82s1.18,1.17,1.21,2c-1.57.72-4.92,2.31-4.92,4.93,0,.84.46,1.38,1.16,1.38,1.17,0,3.84-2.16,4.76-5.71a14.55,14.55,0,0,0,2.94-1.29,4.35,4.35,0,0,0-.13.87c0,1,.51,1.25.94,1.25.76,0,1.71-1.07,2.72-2.2.75-.83,1.59-1.78,2-1.78.16,0,.35.68.35,1.21v.46a10.61,10.61,0,0,1-.21,2.75l-.23.21a19.18,19.18,0,0,0-4.1,5.34,10.81,10.81,0,0,0-1.75,4.85c0,1.09.56,1.25.9,1.25,1.45,0,3.53-3.61,3.55-3.65a18.6,18.6,0,0,0,2.74-7.16c0-.1,0-.2,0-.3a9.25,9.25,0,0,1,5-3.58.37.37,0,0,0,.29-.41A.3.3,0,0,0,84.91,36.63ZM78.58,41.8c-.77,5.18-4.31,9.13-4.82,9.26-.09,0-.13-.19-.13-.31C73.63,48.85,75.51,45,78.58,41.8ZM65.16,43.5c0-.91.81-2.72,3.79-4-.89,3-2.83,4.23-3.52,4.23C65.24,43.76,65.16,43.68,65.16,43.5Zm3.25-15a16.15,16.15,0,0,1-2.21,4.79C66.75,31.87,67.7,29.85,68.41,28.49Z"/>
    <path fill="#cfd852" d="M113.94,45a42.16,42.16,0,0,1,1.6-8.22A38.44,38.44,0,0,0,117,29.58c0-1.43-.39-2.15-1.15-2.15h0c-1.76,0-4.2,4.08-6.42,8.33.1-.36.21-.74.32-1.15.87-3.05,2.06-7.22,2.06-10,0-2.35-.89-3.76-2.38-3.76-3.46,0-7.61,6.69-9.52,10,0-.2.08-.41.13-.64a15.93,15.93,0,0,0,.45-3.27,6.05,6.05,0,0,0-.31-1.83,1.34,1.34,0,0,0-.75-.78.6.6,0,0,0-.56.13h0c-.08.07-.22.19-.15.36a.25.25,0,0,0,.26.16h0c.48,0,.7.56.7,1.69,0,3.31-1.44,7-2.72,10.33-1,2.68-1.94,5-1.94,6.69,0,.54.19.82.56.82s.76-1,1.85-4.71a46.17,46.17,0,0,1,1.58-4.92,49.58,49.58,0,0,1,4.48-7.82c2.32-3.25,4.36-5,5.91-5a.65.65,0,0,1,.46.18c.5.5.5,1.82.5,2.46v.08c0,4.24-4.19,18.21-4.23,18.35v.06c0,.22.2.55.46.55h0c.52,0,.68-.45,1-1.64.2-.62.47-1.48.89-2.6,2.66-7.06,6.36-11.35,7.28-11.35.22,0,.26.33.26.91A57.56,57.56,0,0,1,114.56,36c-.88,3.66-1.78,7.45-1.78,9,0,.75.27,1.94,1,1.94.53,0,1-.68,1-.95a.49.49,0,0,0-.47-.47.45.45,0,0,0-.29.12,2.67,2.67,0,0,1,0-.56Z"/>
    <path fill="#cfd852" d="M146.09,34.77a.82.82,0,0,0,.77-.78.87.87,0,0,0-.73-.86.9.9,0,0,0-.73.95A.67.67,0,0,0,146.09,34.77Z"/>
    <path fill="#cfd852" d="M155.47,36.75s-.17-.21-.49,0a2,2,0,0,0-.25.14,1.21,1.21,0,0,1-.25.13,5.33,5.33,0,0,1,0-1.23,8.71,8.71,0,0,0,.07-.93A.68.68,0,0,0,154,34c-.67,0-2.27,2.09-3.3,3.56a24.68,24.68,0,0,0,.88-2.61.49.49,0,0,0-.47-.48c-.3,0-.42.18-.59.45l-.11.17c-1,1.56-4.4,5.43-5.57,5.43-.12,0-.48,0-.48-.78a8.29,8.29,0,0,1,1.36-3.39c.24-.43.12-.77-.1-.9a.63.63,0,0,0-.83.33,7.85,7.85,0,0,0-.54,1.12,2.08,2.08,0,0,0-.31.21,12,12,0,0,1-5.67,2.55c-.6,0-.82-.3-.82-1.09a.8.8,0,0,1,.12-.48c1.16-.09,2.95-1.51,2.95-2.63a.68.68,0,0,0-.69-.73,4.13,4.13,0,0,0-3.05,2.13l-.69.5c-1,.78-2.63,2-3.69,2-.16,0-.26-.05-.26-.3a5.74,5.74,0,0,1,.28-1.34,5.56,5.56,0,0,0,.28-1.3.88.88,0,0,0-1-1c-1.53,0-3.56,2-4.73,3.23.3-.68.67-1.5.94-2,.41,0,.81-.12,1.57-1,2.43-2.72,4.94-8.2,4.94-9.12a.65.65,0,0,0-.64-.65,1.14,1.14,0,0,0-.74.43c-1.41,1.36-4.35,6.32-6.24,10.29-1.53.36-4.59,2.55-5.19,3a6.35,6.35,0,0,1-.6-.33c-.54-.32-1-.58-1.46-.82-1-.56-1.72-.93-1.72-1.37,0-.72,2-2.47,3.33-2.47.26,0,.26.09.26.13a2.88,2.88,0,0,1-.79,1.51c-.25.33-.42.54-.42.74a.54.54,0,0,0,.52.52c.61,0,1.55-1.78,1.55-2.68a1.07,1.07,0,0,0-1.13-1.12h0c-1.34.05-4.18,2-4.18,3.37,0,.92.77,1.33,2.16,2.08.5.27,1.11.6,1.81,1l-.11.1c-1.38,1.25-4.25,3.85-4.25,5.53,0,.77.44,1.16,1.29,1.16h.06A6.65,6.65,0,0,0,121.8,45a3.72,3.72,0,0,0,1.3-2.57,3.85,3.85,0,0,0-.86-2.19l-.11-.15a23.12,23.12,0,0,1,4.28-2.68,13.09,13.09,0,0,0-1.36,4c0,.19.18.64.52.64s.45-.4.49-.63a.81.81,0,0,1,.08-.34c2.12-3.76,4.88-5,5.47-5h.08a.55.55,0,0,1,0,.12,4.88,4.88,0,0,1-.28,1,6.2,6.2,0,0,0-.41,1.68,1.28,1.28,0,0,0,1.34,1.37c1,0,2.76-1.25,3.9-2.19a2.56,2.56,0,0,0-.05.27,1.84,1.84,0,0,0,.41,1.51,2,2,0,0,0,1.57.67c1.55,0,4.11-1.42,5.58-2.48a5.76,5.76,0,0,0-.26,1.41c0,1.24.69,1.68,1.33,1.68,1,0,3.09-2.11,4.61-3.76-.16.51-.31,1-.31,1a14.28,14.28,0,0,0-.62,3c0,.58.39.64.56.64.34,0,.41-.29.48-.62a7.1,7.1,0,0,1,.53-1.53,16.81,16.81,0,0,1,3.56-5.06c0,.38,0,.94,0,1.17a2.14,2.14,0,0,0,.35,1.37.56.56,0,0,0,.42.18,1.75,1.75,0,0,0,.91-.39C155.54,37.07,155.54,36.87,155.47,36.75Zm-17.46.4a3.76,3.76,0,0,1,1.51-1.31A3,3,0,0,1,138,37.15ZM128.65,35a46.88,46.88,0,0,1,5-8.1A27.53,27.53,0,0,1,128.65,35ZM118,46.09c-.5,0-.52-.1-.52-.26,0-1.48,3.4-4.72,4-5.13a2.62,2.62,0,0,1,.82,1.8v0C122.21,44.31,119.27,46.09,118,46.09Z"/>
    <path fill="#cfd852" d="M173.57,37a1.16,1.16,0,0,0-.16-.21l-.06-.06h-.09a7.06,7.06,0,0,0-2.69,1c-.28.15-.55.29-.77.39a1.75,1.75,0,0,0-1.51-.89c-1.82,0-3.76,1.66-4.92,2.65l-.07.06c1.19-3.54,5.83-13.88,5.88-14l0,0v-.05a.41.41,0,0,0-.43-.43c-.55,0-1.14,1.18-2.32,4a22.88,22.88,0,0,1-1,2.23A47.32,47.32,0,0,1,161.49,37c-2,2.23-3.59,3.41-4.69,3.41-.53,0-.61-.52-.61-.83a3.17,3.17,0,0,1,.47-1.64l.36,0a3.59,3.59,0,0,0,.46,0h0a1.87,1.87,0,0,0,1.37-.6,2.45,2.45,0,0,0,.8-1.69.93.93,0,0,0-.9-1,2.28,2.28,0,0,0-1.68,1,2.52,2.52,0,0,1-.63.57,1.07,1.07,0,0,0-.52.85,1.06,1.06,0,0,1-.09.33,6,6,0,0,0-.62,2.08c0,1.4.8,1.9,1.55,1.9,2.5,0,5.83-4.43,7.65-6.86-1,2.86-3.45,8.52-3.48,8.59l0,0v0a.5.5,0,0,0,.47.56c.3,0,.43-.21.68-.64.17-.27.42-.69.83-1.26,1.13-1.54,3.51-3.72,5.27-3.72a1,1,0,0,1,.87.43,3.15,3.15,0,0,1-.63.4,21,21,0,0,0-2,1.21c-.64.42-2.47,1.89-2.47,3a1,1,0,0,0,1,1,5.5,5.5,0,0,0,3.18-1.65A5,5,0,0,0,170,39.22c0-.49,1.15-1.12,3.44-1.87l.26-.09Zm-8.39,6.12c-.16,0-.17-.1-.17-.13,0-.35,1.36-1.65,3.83-3.18A5.81,5.81,0,0,1,165.18,43.15Zm-8-6.2c.15-.31,1-1.32,1.46-1.32,0,0,.05,0,.05.09a1.51,1.51,0,0,1-1.3,1.26A.79.79,0,0,1,157.2,37Z"/>
</svg>