<svg xmlns="http://www.w3.org/2000/svg" viewBox="0 0 245.61 65.85"><defs><style>.cls-1{fill:#306d6d;}.cls-2{fill:#d1da52;}</style></defs><g id="Layer_2" data-name="Layer 2"><g id="Layer_1-2" data-name="Layer 1"><path class="cls-1" d="M36.43,15.65a4.58,4.58,0,0,0,1.43,1,4.25,4.25,0,0,0,1.75.36,4.46,4.46,0,0,0,1.78-.36,4.62,4.62,0,0,0,1.44-1,4.7,4.7,0,0,0,1-1.43,4.48,4.48,0,0,0,0-3.52,4.87,4.87,0,0,0-1-1.44,4.51,4.51,0,0,0-1.44-1,4.63,4.63,0,0,0-1.78-.35,4.41,4.41,0,0,0-1.75.35,4.47,4.47,0,0,0-1.43,1,4.9,4.9,0,0,0-1,1.44,4.6,4.6,0,0,0,0,3.52A4.73,4.73,0,0,0,36.43,15.65Z"/><path class="cls-1" d="M76.74,15.65a4.56,4.56,0,0,0,1.45,1A4.38,4.38,0,0,0,80,17a4.3,4.3,0,0,0,1.74-.36,4.56,4.56,0,0,0,1.45-1,4.7,4.7,0,0,0,1-1.43,4.48,4.48,0,0,0,0-3.52,4.87,4.87,0,0,0-1-1.44A4.44,4.44,0,0,0,80,7.92a4.54,4.54,0,0,0-1.77.35,4.45,4.45,0,0,0-1.45,1,4.63,4.63,0,0,0-.95,1.44,4.55,4.55,0,0,0,.95,5Z"/><path class="cls-1" d="M99,15.55V45.28h4.37q3.94-.22,4.4-4.49V11h-4.4C100.81,11.17,99.35,12.67,99,15.55Z"/><path class="cls-1" d="M101.2,8.92h3.86a1.75,1.75,0,0,0,1.46-.72A2.37,2.37,0,0,0,107,7a1.63,1.63,0,0,0-.31-1.24,8.51,8.51,0,0,0-1.32-1.53c-.51-.49-1-1-1.43-1.5h3.12V1.37c.08-.93-.32-1.39-1.2-1.37H102a1.81,1.81,0,0,0-1.44.9,2.28,2.28,0,0,0-.25,1.5,4.55,4.55,0,0,0,.12.53,1.73,1.73,0,0,0,.34.64l2.49,2.6H100V7.55C99.94,8.46,100.34,8.92,101.2,8.92Z"/><path class="cls-1" d="M123.93,17.37a4.31,4.31,0,0,0,1.43,1,4.38,4.38,0,0,0,1.77.36,4.3,4.3,0,0,0,1.76-.36,4.53,4.53,0,0,0,1.43-1,4.58,4.58,0,0,0,1-1.43,4.46,4.46,0,0,0,0-3.51,4.58,4.58,0,0,0-1-1.43,4.53,4.53,0,0,0-1.43-1,4.3,4.3,0,0,0-1.76-.36,4.38,4.38,0,0,0-1.77.36,4.31,4.31,0,0,0-1.43,1,4.73,4.73,0,0,0-1,1.43,4.58,4.58,0,0,0,0,3.51A4.73,4.73,0,0,0,123.93,17.37Z"/><path class="cls-1" d="M119,26a4.38,4.38,0,0,0,1.43,1,4.54,4.54,0,0,0,1.77.35,4.49,4.49,0,0,0,1.76-.35,4.73,4.73,0,0,0,1.43-1,4.62,4.62,0,0,0,1-1.44,4.3,4.3,0,0,0,.36-1.74,4.46,4.46,0,0,0-.36-1.78,4.62,4.62,0,0,0-1-1.44,4.7,4.7,0,0,0-1.43-1,4.33,4.33,0,0,0-1.76-.36,4.5,4.5,0,0,0-3.2,1.33,4.78,4.78,0,0,0-1,1.44,4.46,4.46,0,0,0-.36,1.78,4.3,4.3,0,0,0,.36,1.74A4.78,4.78,0,0,0,119,26Z"/><path class="cls-1" d="M128.63,19.63a4.62,4.62,0,0,0-1,1.44,4.46,4.46,0,0,0-.36,1.78,4.3,4.3,0,0,0,.36,1.74,4.62,4.62,0,0,0,1,1.44,4.73,4.73,0,0,0,1.43,1,4.6,4.6,0,0,0,3.52,0A4.9,4.9,0,0,0,135,26a4.51,4.51,0,0,0,1-1.44,4.3,4.3,0,0,0,.36-1.74,4.46,4.46,0,0,0-.36-1.78,4.51,4.51,0,0,0-1-1.44,4.87,4.87,0,0,0-1.44-1,4.48,4.48,0,0,0-3.52,0A4.7,4.7,0,0,0,128.63,19.63Z"/><path class="cls-1" d="M171.16,19.68h-4.38a4.36,4.36,0,0,0-1.73.5,4.45,4.45,0,0,0-1.31,1.1,5.78,5.78,0,0,0-.9,1.6,9.29,9.29,0,0,0-.49,2V35.17H147.06V19.68h-4.4a4.28,4.28,0,0,0-3.08,1.6,5.78,5.78,0,0,0-.9,1.6,8.24,8.24,0,0,0-.46,2V35.17H113.58v5.71q-.31,4.45,3.86,4.4h47.28a5.9,5.9,0,0,0,2.72-.51,5.62,5.62,0,0,0,2.13-1.72,7.84,7.84,0,0,0,1.31-2.79,20.33,20.33,0,0,0,.28-5.09Z"/><path class="cls-1" d="M163.2,49.4a4.78,4.78,0,0,0-1.44-1,4.48,4.48,0,0,0-3.52,0,4.78,4.78,0,0,0-1.44,1,4.5,4.5,0,0,0-1.33,3.2,4.3,4.3,0,0,0,.36,1.74,4.84,4.84,0,0,0,1,1.46,4.46,4.46,0,0,0,6.4,0,4.87,4.87,0,0,0,1-1.46,4.47,4.47,0,0,0,.35-1.74,4.54,4.54,0,0,0-.35-1.77A4.38,4.38,0,0,0,163.2,49.4Z"/><path class="cls-1" d="M153.51,49.4a4.73,4.73,0,0,0-1.43-1,4.25,4.25,0,0,0-1.75-.36,4.35,4.35,0,0,0-1.75.36,4.78,4.78,0,0,0-1.44,1,4.5,4.5,0,0,0-1.33,3.2,4.3,4.3,0,0,0,.36,1.74,4.84,4.84,0,0,0,1,1.46,4.39,4.39,0,0,0,3.19,1.34,4.41,4.41,0,0,0,1.75-.35,4.47,4.47,0,0,0,1.43-1,4.87,4.87,0,0,0,1-1.46,4.47,4.47,0,0,0,.35-1.74,4.54,4.54,0,0,0-.35-1.77A4.38,4.38,0,0,0,153.51,49.4Z"/><path class="cls-1" d="M245.58,19.68h-30.7v1a6.74,6.74,0,0,0,6.74,6.71h15.91v7.8H226.88l-9.37,7.42V35.17H199.63l0-15.49H173.67l0,2.39a7.62,7.62,0,0,0,.3,2.53,3.88,3.88,0,0,0,.93,1.58,3.46,3.46,0,0,0,1.4.84,7.67,7.67,0,0,0,1.74.34h9.43l0,7.81-13.81,0,0,4.85a5.41,5.41,0,0,0,.23,2.07,4.73,4.73,0,0,0,.93,1.66,4.46,4.46,0,0,0,3.39,1.5h61.64c3.51-.46,5.43-2.3,5.78-5.52Z"/><path class="cls-1" d="M65,19.68V22a5.38,5.38,0,0,0,5.38,5.36H87.62v7.8H60.37V19.44H41.5A8.2,8.2,0,0,0,33.87,24V19.44H29.49c-2.59.13-4,1.65-4.4,4.54l0,11.18H18.18V19.68h-4.6c-3.13.72-4.64,3-4.55,6.89L9,45.28A6.69,6.69,0,0,1,7.89,48a15,15,0,0,1-2.16,2.5A32.41,32.41,0,0,1,3,52.84C2,53.59,1,54.32,0,55H11.49a22.4,22.4,0,0,0,2.65-2.27A14.66,14.66,0,0,0,16,50.45,12.23,12.23,0,0,0,17.17,48a17,17,0,0,0,.67-2.73H89.91c3.5-.46,5.43-2.3,5.77-5.52l0-20.08ZM33.87,35.08a13.56,13.56,0,0,1,2.28-5,4.64,4.64,0,0,1,3.19-1.89h0a16.21,16.21,0,0,1,2.08-.08H51.59v7Z"/><path class="cls-2" d="M79.19,60.7a1.07,1.07,0,0,0-.94.55l-.57.92a1.17,1.17,0,0,0-.19.62,1.05,1.05,0,0,0,.36.8,1.2,1.2,0,0,0,.83.33,1.06,1.06,0,0,0,.93-.55l.58-.92h0a1.25,1.25,0,0,0,.18-.62A1.05,1.05,0,0,0,80,61,1.16,1.16,0,0,0,79.19,60.7Z"/><path class="cls-2" d="M90.2,51.27a8.54,8.54,0,0,0-1.47-3.86,1.05,1.05,0,0,0-1-.58,1.2,1.2,0,0,0-.83.33,1.05,1.05,0,0,0-.36.8,1.12,1.12,0,0,0,.17.58,7,7,0,0,1,1.16,2.73c0,1-1.09,2-3.26,2.89a20.63,20.63,0,0,1-8.24,1.55,24.45,24.45,0,0,1-5.23-.55C69,54.67,67.81,54,67.81,53c0-2.28,3.11-4,9.25-5,1.76-.31,2-.59,2-.83s-.57-.49-1.9-.49A18.11,18.11,0,0,0,70,48.21c-3,1.29-4.45,3-4.45,5.17,0,1.87,1.51,3.2,4.47,3.95a27.78,27.78,0,0,0,6.42.63,23.46,23.46,0,0,0,9.15-1.73C88.64,54.94,90.2,53.27,90.2,51.27Z"/><path class="cls-2" d="M105.68,62.91a1.24,1.24,0,0,0-.49.11,12.62,12.62,0,0,1-2.86.91c-1.12.17-1.64.46-1.64.9,0,.59.63.87,1.93.87a8.78,8.78,0,0,0,3.46-.61,1,1,0,0,0,.71-1A1,1,0,0,0,105.68,62.91Z"/><path class="cls-2" d="M112.74,50.66c.35,0,.76-.33,1.27-1a6.63,6.63,0,0,1,1-1.06c.64-.55,1-.67,1.13-.67s.46.15.93.85a1.06,1.06,0,0,0,.91.5,1.22,1.22,0,0,0,.83-.32,1.06,1.06,0,0,0,.36-.81,1.2,1.2,0,0,0-.2-.63h0a3.32,3.32,0,0,0-2.61-1.78c-1.27,0-2.46,1-3.54,3a3.21,3.21,0,0,0-.47,1.41C112.34,50.59,112.59,50.66,112.74,50.66Z"/><path class="cls-2" d="M132.41,50.61l-.61,0h-.17a1.35,1.35,0,0,0-1.22.68,3.9,3.9,0,0,0-.52,1.88,3,3,0,0,0,0,.52,16.44,16.44,0,0,1-4,1.42,17.55,17.55,0,0,1-3.08.51,1.79,1.79,0,0,0-.42-.05,2.39,2.39,0,0,1-1-.18,5.38,5.38,0,0,0,.52-1.2h0a1.37,1.37,0,0,0,0-.34c0-.72-.41-1.09-1.18-1.09a1,1,0,0,0-1.06.8c-.44,1.5-1.23,2.22-2.41,2.2a6.13,6.13,0,0,0,.57-1h0a1.35,1.35,0,0,0,.09-.47c0-.71-.4-1.09-1.17-1.09a1,1,0,0,0-1,.69,4.92,4.92,0,0,1-1.09,1.57,2.36,2.36,0,0,1-1.65.81.83.83,0,0,1-.56-.19,8.19,8.19,0,0,0,.93-1h0a1.19,1.19,0,0,0,.25-.69,1.13,1.13,0,0,0-.36-.82,1.19,1.19,0,0,0-.82-.33,1.1,1.1,0,0,0-.89.45A5.56,5.56,0,0,1,107,55.71a8.38,8.38,0,0,1-.86,0,1.23,1.23,0,0,0-.83.27l-.1,0v-.13h-.13s-.16-.05-.3-1c0-1.32-.68-1.59-1.25-1.59a9.58,9.58,0,0,0-3.05.62A7.78,7.78,0,0,0,96,57.76c-.38.9-.69,1.17-.89,1.26a14.9,14.9,0,0,1-3.87,1.17c-1.56.15-2.29.47-2.29,1v.23c.09.38.44.57,1,.57h.25a16.25,16.25,0,0,0,5.3-.68A5,5,0,0,0,97.84,59a5.84,5.84,0,0,1,1.89-2.32,7.39,7.39,0,0,1,2.94-1.17,6,6,0,0,0,.31,1c.52,1.12,1.62,1.69,3.27,1.69a.19.19,0,0,0,.2-.19V58H107a8.79,8.79,0,0,0,3.6-.7A2.84,2.84,0,0,0,113,58.38a4.5,4.5,0,0,0,2.55-.83,4.65,4.65,0,0,0,1.79.38,4.2,4.2,0,0,0,2.59-.88,3.51,3.51,0,0,0,2,.72,1.44,1.44,0,0,0,.53.09,21.39,21.39,0,0,0,5.86-1.11,20.08,20.08,0,0,0,5.32-2.27,2.68,2.68,0,0,0,1.24-2v-.13C134.92,51.37,134.07,50.8,132.41,50.61Z"/><path class="cls-2" d="M161.81,51.1a1.08,1.08,0,0,0,.94-.55l.57-.92h0a1.27,1.27,0,0,0,.19-.62,1.05,1.05,0,0,0-.36-.8,1.19,1.19,0,0,0-.83-.32,1.06,1.06,0,0,0-.94.54l-.57.92a1.17,1.17,0,0,0-.19.62,1.05,1.05,0,0,0,.36.8A1.2,1.2,0,0,0,161.81,51.1Z"/><path class="cls-2" d="M179,50.61l-.6,0h-.17a1.33,1.33,0,0,0-1.22.68,3.92,3.92,0,0,0-.53,1.88,4.38,4.38,0,0,0,0,.52,16.34,16.34,0,0,1-3.94,1.42,16.15,16.15,0,0,1-3.48.53,1.64,1.64,0,0,0-.53.08,4,4,0,0,1-2.46-1.45,1.28,1.28,0,0,0-.95-.45,1,1,0,0,0-1.07,1.07,1.41,1.41,0,0,0,.2.7,5.79,5.79,0,0,1,.9,2.63c0,1.78-1.52,3.21-4.51,4.24a21,21,0,0,1-6.83,1.17,12.86,12.86,0,0,1-6.47-1.41c-1.29-.75-1.94-1.59-1.94-2.5,0-1.19,1.06-2.26,3.14-3.16a26.37,26.37,0,0,1,8.8-1.72c2.4-.13,2.71-.49,2.71-.78,0-.47-.83-.71-2.67-.8l-1.28,0a21.71,21.71,0,0,0-8.91,1.65c-2.7,1.22-4.06,2.85-4.06,4.84,0,1.83,1.06,3.34,3.15,4.49a15.45,15.45,0,0,0,7.53,1.67,22,22,0,0,0,8.42-1.61c3.45-1.41,5.2-3.44,5.2-6,0-.14,0-.28,0-.42a4.71,4.71,0,0,0,1.29.17,1.42,1.42,0,0,0,.57-.1,22.91,22.91,0,0,0,5.65-1.11,20.23,20.23,0,0,0,5.32-2.27,2.67,2.67,0,0,0,1.23-2v-.13C181.47,51.37,180.63,50.8,179,50.61Z"/></g></g></svg>