<svg xmlns="http://www.w3.org/2000/svg" viewBox="0 0 861.47 225.34">
<defs>
    <style>
        .cls-1{fill:#cfd852;}.cls-2{font-size:157.35px;fill:#efeff0;stroke:#efeff0;stroke-miterlimit:10;stroke-width:2px;font-family:CrimsonFoam-Regular, Crimson Foam;}.cls-3{fill:#306d6d;}
    </style>
</defs>
    <path class="cls-1" d="M30.82,33.83H0V6.31H97.12V33.83H66.3v77.73H30.82Z"/>
    <path class="cls-1" d="M182.82,67.36v44.2H151.25V100.73c-3.91,8.27-11.73,12.33-23.31,12.33-20.14,0-30.52-11.43-30.52-25.56,0-15.93,12-24.8,37.59-24.8h13.68c-1.05-6.32-5.86-9.63-15.48-9.63-7.37,0-15.64,2.41-21.05,6.47l-10.83-22.4c9.62-6,24.21-9.33,37-9.33C166.58,27.81,182.82,40,182.82,67.36Zm-34,17.44V79.08h-8.42c-7.21,0-10.37,2.41-10.37,6.92,0,3.76,3,6.61,8.12,6.61A10.74,10.74,0,0,0,148.84,84.8Z"/>
    <path class="cls-1" d="M188.53,0h34V111.56h-34Z"/>
    <path class="cls-1" d="M267.91,86.3l-5.41,5.86v19.4h-34V0h34V53.22l23.61-23.9h40.14L292.27,65,329,111.56h-41Z"/>
    <path class="cls-1" d="M397.36,56.08h30.82v44.5C415.4,109.3,397.81,114,382.33,114c-34,0-58.79-22.7-58.79-55s24.81-55,59.54-55c20.75,0,37.43,7.22,48.11,20.3l-22.7,20c-6.62-7.67-14.29-11.57-23.61-11.57-15.63,0-25.56,10.07-25.56,26.31,0,15.78,9.93,26.31,25.11,26.31a32.94,32.94,0,0,0,12.93-2.56Z"/>
    <path class="cls-1" d="M488.47,85.1h-9.62v26.46H443.37V6.31H494c29.32,0,48,15.34,48,39.7,0,15.18-7.21,26.61-19.84,33.07l22.1,32.48H506.36Zm3.31-51.42H478.85V58.33h12.93c9.77,0,14.43-4.66,14.43-12.32S501.55,33.68,491.78,33.68Z"/>
    <path class="cls-1" d="M642.87,84.8v26.76h-87.5V6.31h85.55V33.08H590.25V45.41h44.51V71H590.25V84.8Z"/>
    <path class="cls-1" d="M744.06,84.8v26.76H656.55V6.31H742.1V33.08H691.43V45.41h44.51V71H691.43V84.8Z"/>
    <path class="cls-1" d="M861.47,6.31V111.56H832.31l-40-47.81v47.81H757.73V6.31H786.9l40,47.81V6.31Z"/>
    <text class="cls-2" transform="translate(231.05 179.5)">by Msheireb</text>
    <polyline class="cls-3" points="34.94 51.54 34.94 29.95 4.12 29.95 4.12 10.67 93.01 10.67 93.01 29.95 62.19 29.95"/>
</svg>