<svg xmlns="http://www.w3.org/2000/svg" viewBox="0 0 119.61 31.83"><defs><style>.cls-1{fill:#fff;}</style></defs><g id="Layer_2" data-name="Layer 2"><g id="Layer_1-2" data-name="Layer 1"><path class="cls-1" d="M49.61,26.87h1.82v4.87h.68V26.87h1.82v-.65H49.61ZM47.54,30.5l-3.4-4.28h-.57v5.52h.66V27.36l3.46,4.38h.51V26.22h-.66Zm19.17.07-1.43-4.36h-.51l-1.43,4.36-1.53-4.35h-.74l2,5.55h.52L65,27.54l1.43,4.23H67l2-5.55h-.71Zm-9.24-4.44h0a2.78,2.78,0,0,0-2.77,2.79,2.83,2.83,0,0,0,2.76,2.9,2.79,2.79,0,0,0,2.78-2.88A2.76,2.76,0,0,0,57.47,26.13ZM59.55,29a2.08,2.08,0,1,1-4.16,0v0a2.08,2.08,0,0,1,2.07-2.19A2.12,2.12,0,0,1,59.55,29Zm14.7,1.51-3.39-4.28h-.58v5.52h.66V27.36l3.46,4.38h.51V26.22h-.66ZM101,26.19l-2.57,5.55h.72l.66-1.47h2.9l.66,1.47h.75l-2.57-5.55Zm-.89,3.44,1.15-2.53,1.15,2.53Zm-3.62-1h-3V26.22h-.68v5.52h.68V29.29h3v2.45h.67V26.22h-.68ZM23.74,26.22H21.86v5.52h1.88A2.76,2.76,0,0,0,26.66,29,2.72,2.72,0,0,0,23.74,26.22Zm0,4.87h-1.2V26.87h1.2A2.09,2.09,0,0,1,26,29,2.06,2.06,0,0,1,23.74,31.09Zm64.68-5h0a2.79,2.79,0,0,0-2.78,2.79,2.82,2.82,0,0,0,2.77,2.9,2.78,2.78,0,0,0,2.77-2.88A2.75,2.75,0,0,0,88.42,26.13ZM90.49,29a2.09,2.09,0,0,1-2.07,2.2A2.12,2.12,0,0,1,86.33,29v0a2.08,2.08,0,1,1,4.16,0ZM81.4,26.22H79.52v5.52H81.4A2.77,2.77,0,0,0,84.32,29,2.72,2.72,0,0,0,81.4,26.22Zm0,4.87H80.19V26.87H81.4a2.11,2.11,0,1,1,0,4.22ZM40,30.57l-1.43-4.36h-.51l-1.43,4.36L35.1,26.22h-.74l2,5.55h.51l1.43-4.23,1.43,4.23h.51l2-5.55h-.7Zm-9.24-4.44h0A2.78,2.78,0,0,0,28,28.92a2.84,2.84,0,0,0,2.76,2.9,2.85,2.85,0,0,0,0-5.69ZM32.84,29a2.08,2.08,0,1,1-4.16,0v0a2.08,2.08,0,0,1,2.07-2.19A2.12,2.12,0,0,1,32.84,29ZM9.05,15.22,4.22,0H0V20.53H2.87V4.46L8,20.53h2.21L15.21,4.47V20.53h2.86V0H13.8ZM39,0H36.15V20.53H39ZM65.37,11.62V9H57.94v2.65Zm1.8,6.09H56.91V2.77h9.71V0H54.05V20.53H67.17Zm35.14-6.09V9H94.89v2.65ZM93.86,2.77h9.7V0H91V20.53h13.12V17.71H93.86ZM47.47,9H40v2.65h7.43Zm3.89-9H48.5V20.53h2.86Zm33.1,11.2A5.3,5.3,0,0,0,86.27,10a5.44,5.44,0,0,0,1.34-2.38,6.56,6.56,0,0,0,.24-1.7V5.74a6.05,6.05,0,0,0-.73-3,4.62,4.62,0,0,0-1.23-1.42,6.24,6.24,0,0,0-2.31-1A8.9,8.9,0,0,0,81.5,0H75.38V20.53h2.87V2.77h3.07a8.91,8.91,0,0,1,1.09.06,4.25,4.25,0,0,1,.92.22,2.44,2.44,0,0,1,1.17.88A3.35,3.35,0,0,1,85,5.86a3.44,3.44,0,0,1-.41,1.76,2.58,2.58,0,0,1-.72.78A3.69,3.69,0,0,1,82.49,9a7,7,0,0,1-1.3.11h-.66l4.66,11.46h3.09ZM32,18.53a5.94,5.94,0,0,0,1.13-2,7.68,7.68,0,0,0,.34-2.28h0A5.13,5.13,0,0,0,33,12a4.7,4.7,0,0,0-1.26-1.59,9.44,9.44,0,0,0-2.65-1.49c-.95-.38-1.93-.68-2.8-1h0a7.66,7.66,0,0,1-2.13-1.1,2.12,2.12,0,0,1-.57-.69,1.84,1.84,0,0,1-.2-.88,2.5,2.5,0,0,1,.18-1,2.09,2.09,0,0,1,.53-.75,3,3,0,0,1,2.07-.71H31V0h-5a6,6,0,0,0-4,1.57,5.19,5.19,0,0,0-1.54,3.79v0A5,5,0,0,0,21,7.58a4.68,4.68,0,0,0,1.25,1.53,10.29,10.29,0,0,0,2.64,1.41c.95.36,1.92.66,2.78,1h0a6.39,6.39,0,0,1,2.11,1.2,2.48,2.48,0,0,1,.58.8,2.7,2.7,0,0,1,.21,1.08,3.51,3.51,0,0,1-.22,1.24,2.88,2.88,0,0,1-.64,1,3.09,3.09,0,0,1-1.05.66,4.45,4.45,0,0,1-1.5.24H21.79v2.82h5.14a7.78,7.78,0,0,0,3-.55A5.55,5.55,0,0,0,32,18.53ZM72.71,0H69.84V20.53h2.87ZM119.6,14.65a5.61,5.61,0,0,0-.42-2.23,4.81,4.81,0,0,0-1.49-1.93A4.44,4.44,0,0,0,117,10l-.13-.07A4.47,4.47,0,0,0,118,9a5,5,0,0,0,1-1.93,5.61,5.61,0,0,0,.19-1.41c0-.13,0-.22,0-.23a6.18,6.18,0,0,0-.68-2.75A4.82,4.82,0,0,0,116.16.52,6,6,0,0,0,113.78,0h-7V20.53h6a8.76,8.76,0,0,0,3.75-.72,5,5,0,0,0,2.84-3.35,5.94,5.94,0,0,0,.22-1.57C119.61,14.75,119.6,14.67,119.6,14.65Zm-3.25,1.68a2.4,2.4,0,0,1-.71.74,3.62,3.62,0,0,1-1.39.53,6.67,6.67,0,0,1-1.35.11h-3.22V2.77h3.75a4.92,4.92,0,0,1,.9.08,3.17,3.17,0,0,1,.72.23,2.08,2.08,0,0,1,.88.84,3.57,3.57,0,0,1,.38,1.76,2.79,2.79,0,0,1-.38,1.49,2.42,2.42,0,0,1-.67.72,3.62,3.62,0,0,1-1.33.59,5.46,5.46,0,0,1-1.33.16h-.45v2.24h.45a6.3,6.3,0,0,1,1.2.12,4,4,0,0,1,2,1,3.12,3.12,0,0,1,.7,1,4.49,4.49,0,0,1,.3,1.55v.09A3.15,3.15,0,0,1,116.35,16.33Z"/></g></g></svg>