<svg xmlns="http://www.w3.org/2000/svg" viewBox="0 0 40.31 37.66"><defs><style>.cls-1{fill:#2d6e6d;}</style></defs><g id="Layer_2" data-name="Layer 2"><g id="Layer_1-2" data-name="Layer 1"><path class="cls-1" d="M20,18.66a.33.33,0,0,1-.28-.16L16.59,13a1.73,1.73,0,0,0-1.5-.86,1.71,1.71,0,0,0-1.5.86l-1,1.69a.33.33,0,0,1-.56-.33l1-1.68a2.38,2.38,0,0,1,4.13,0l3.16,5.46a.34.34,0,0,1-.12.45A.33.33,0,0,1,20,18.66Z"/><path class="cls-1" d="M19.55,24H14.38a.33.33,0,0,1-.33-.33.32.32,0,0,1,.33-.32h5.17a1.74,1.74,0,0,0,1.5-2.6L20.63,20a.33.33,0,0,1,.57-.32l.41.71A2.39,2.39,0,0,1,19.55,24Z"/><path class="cls-1" d="M12.72,24H10.63a2.39,2.39,0,0,1-2.07-3.58l2.53-4.38a.33.33,0,0,1,.45-.12.34.34,0,0,1,.12.45L9.13,20.76a1.68,1.68,0,0,0,0,1.73,1.71,1.71,0,0,0,1.5.87h2.09a.32.32,0,0,1,.33.32A.33.33,0,0,1,12.72,24Z"/><path class="cls-1" d="M11.56,19.25a.32.32,0,0,1-.32-.31l-.16-2.22-2,1a.33.33,0,0,1-.29-.59l2.44-1.19a.34.34,0,0,1,.31,0,.33.33,0,0,1,.16.26l.19,2.71a.34.34,0,0,1-.31.35Z"/><path class="cls-1" d="M20,18.66l-.14,0-2.44-1.19a.33.33,0,0,1,.29-.59l2,1,.16-2.23a.33.33,0,1,1,.65.05l-.19,2.71a.35.35,0,0,1-.16.26A.33.33,0,0,1,20,18.66Z"/><path class="cls-1" d="M16.63,25.53a.3.3,0,0,1-.18-.06L14.2,24a.32.32,0,0,1,0-.54l2.25-1.52a.32.32,0,0,1,.45.09.34.34,0,0,1-.09.46L15,23.68l1.85,1.25a.32.32,0,0,1,.09.45A.31.31,0,0,1,16.63,25.53Z"/><path class="cls-1" d="M26,4.29H4.17a.32.32,0,0,1-.29-.17.35.35,0,0,1,0-.33L5.69.88A1.85,1.85,0,0,1,7.27,0H22.9a1.85,1.85,0,0,1,1.58.88l1.8,2.91a.33.33,0,0,1-.28.5ZM4.75,3.64H25.42l-1.5-2.42a1.2,1.2,0,0,0-1-.57H7.27a1.2,1.2,0,0,0-1,.57Z"/><path class="cls-1" d="M4.83,26.31A.33.33,0,0,1,4.5,26l-1-17.93a.33.33,0,1,1,.65,0L5.15,26a.32.32,0,0,1-.31.34Z"/><path class="cls-1" d="M23.75,37.66H10.8a.32.32,0,0,1-.33-.32A.33.33,0,0,1,10.8,37h13a1,1,0,0,0,1-.93l1.11-22.35a.32.32,0,0,1,.34-.31.32.32,0,0,1,.31.34L25.38,36.11A1.63,1.63,0,0,1,23.75,37.66Z"/><path class="cls-1" d="M26.73,14.07H24.32a2.28,2.28,0,0,1-2.13-1.45L20.81,9.14a1.19,1.19,0,0,0-1.11-.76H3.07A1.63,1.63,0,0,1,1.44,6.75V5.27A1.63,1.63,0,0,1,3.07,3.64H27.15a1.64,1.64,0,0,1,1.63,1.72l-.41,7.17A1.64,1.64,0,0,1,26.73,14.07ZM3.07,4.29a1,1,0,0,0-1,1V6.75a1,1,0,0,0,1,1H19.7A1.84,1.84,0,0,1,21.42,8.9l1.38,3.48a1.63,1.63,0,0,0,1.52,1h2.41a1,1,0,0,0,1-.93l.41-7.16a1,1,0,0,0-.26-.73,1,1,0,0,0-.71-.31Z"/><path class="cls-1" d="M6.05,37.61a6,6,0,1,1,6-6A6,6,0,0,1,6.05,37.61Zm0-11.44a5.4,5.4,0,1,0,5.39,5.4A5.4,5.4,0,0,0,6.05,26.17Z"/><path class="cls-1" d="M6.05,33.68a2.11,2.11,0,1,1,2.1-2.11A2.11,2.11,0,0,1,6.05,33.68Zm0-3.57A1.46,1.46,0,1,0,7.5,31.57,1.46,1.46,0,0,0,6.05,30.11Z"/><path class="cls-1" d="M38.5,37.66H26.81a.32.32,0,0,1-.33-.32.33.33,0,0,1,.33-.33H38.5a1.16,1.16,0,0,0,1.16-1.16V24.56A1.16,1.16,0,0,0,38.5,23.4H25.7a.32.32,0,0,1-.33-.32.33.33,0,0,1,.33-.33H38.5a1.81,1.81,0,0,1,1.81,1.81V35.85A1.81,1.81,0,0,1,38.5,37.66Z"/><path class="cls-1" d="M26.23,35.78A3.63,3.63,0,0,1,25,35.56a.33.33,0,0,1-.2-.42.32.32,0,0,1,.42-.19,3.12,3.12,0,0,0,1,.18c2.11,0,3.83-2.21,3.83-4.92s-1.72-4.93-3.83-4.93a2.76,2.76,0,0,0-.57.06.33.33,0,0,1-.38-.26.32.32,0,0,1,.26-.38,3.23,3.23,0,0,1,.69-.07,4.05,4.05,0,0,1,3.19,1.66,6.59,6.59,0,0,1,0,7.83A4.05,4.05,0,0,1,26.23,35.78Z"/><path class="cls-1" d="M35.41,35.63H31a.32.32,0,0,1-.33-.32A.33.33,0,0,1,31,35H35.1a2.89,2.89,0,0,1,2.53-2.53V28a2.88,2.88,0,0,1-2.53-2.53H31a.32.32,0,0,1-.33-.32.33.33,0,0,1,.33-.33h4.37a.33.33,0,0,1,.33.33A2.22,2.22,0,0,0,38,27.33a.32.32,0,0,1,.32.32v5.11a.32.32,0,0,1-.32.33,2.21,2.21,0,0,0-2.22,2.22A.32.32,0,0,1,35.41,35.63Z"/></g></g></svg>