<svg xmlns="http://www.w3.org/2000/svg" viewBox="0 0 33.26 33.01"><defs><style>.cls-1{fill:#2d6e6d;}</style></defs><g id="Layer_2" data-name="Layer 2"><g id="Layer_1-2" data-name="Layer 1"><path class="cls-1" d="M19.16,17.6A6.62,6.62,0,0,1,12.55,11c0-2.48,1.72-4.32,3.23-5.94.49-.53,1-1,1.32-1.5A7.26,7.26,0,0,0,18.7.42.47.47,0,0,1,19.2,0a.47.47,0,0,1,.42.49A5.56,5.56,0,0,0,21,3.55a19.29,19.29,0,0,0,1.43,1.59c1.55,1.6,3.3,3.41,3.3,5.85A6.62,6.62,0,0,1,19.16,17.6ZM19.09,2.09a11.56,11.56,0,0,1-1.26,2c-.39.51-.87,1-1.37,1.57-1.4,1.5-3,3.2-3,5.31a5.68,5.68,0,0,0,11.36,0c0-2.06-1.62-3.74-3-5.21a19.77,19.77,0,0,1-1.5-1.67A9.84,9.84,0,0,1,19.09,2.09Z"/><path class="cls-1" d="M19.16,14.56a.45.45,0,0,1-.46-.46.46.46,0,0,1,.46-.46A2.65,2.65,0,0,0,21.81,11a.46.46,0,1,1,.92,0A3.57,3.57,0,0,1,19.16,14.56Z"/><path class="cls-1" d="M10,33a.44.44,0,0,1-.24-.07L.22,27.11A.45.45,0,0,1,0,26.78a.51.51,0,0,1,.12-.38l5.58-6a3.1,3.1,0,0,1,2.29-1H18.83a2.58,2.58,0,0,1,2.31,2.3,2.33,2.33,0,0,1-.46,1.38h1.77a2.17,2.17,0,0,0,1.28-.41h0l6.05-4a2.32,2.32,0,0,1,2.1-.33,2,2,0,0,1,1.3,1.4,2,2,0,0,1-.49,1.9s0,0-.05.05l-6.75,5.46a5.69,5.69,0,0,1-3.23,1.27L14,29h0a2.18,2.18,0,0,0-1.86,1l-1.7,2.8a.48.48,0,0,1-.29.21ZM1.18,26.62l8.67,5.29,1.46-2.4A3.1,3.1,0,0,1,14,28l8.67-.59a4.82,4.82,0,0,0,2.71-1.07l6.73-5.44a1.13,1.13,0,0,0,.25-1,1.08,1.08,0,0,0-.69-.75,1.42,1.42,0,0,0-1.29.21h0l-6.05,4.05a3.14,3.14,0,0,1-1.82.59H13a.47.47,0,0,1,0-.93h5.82a1.38,1.38,0,0,0,1.38-1.38c0-.75-1-1.37-1.38-1.37H8A2.19,2.19,0,0,0,6.38,21Z"/></g></g></svg>